<svg id="Layer_1" data-name="Layer 1" xmlns="http://www.w3.org/2000/svg" viewBox="0 0 409.56 409.7"><defs><style>.cls-1{fill:#f42439;}</style></defs><title>biologiya-qizil</title><path class="cls-1" d="M0,292.8c1.9-8.77,5.34-16.63,12.48-22.56a34.66,34.66,0,0,1,47.43,2.22,18.77,18.77,0,0,1,1.72,2.34L146.27,229c-4.06-10.88-5.71-21.89-4-33.35s6.3-21.34,13.68-31.05c-3-2.77-6.07-5.36-8.9-8.15q-12.37-12.22-24.58-24.62c-1.63-1.66-2.8-1.94-5-.9-14.73,6.8-32.08-.3-37.59-15.18-5.78-15.63,2.4-32.08,18.48-36.64,10.35-2.93,19.68-.39,27.14,7.2s9.88,17.14,6.81,27.64a56.47,56.47,0,0,1-2.18,5.49L165.75,155a63.42,63.42,0,0,1,78,0l76.52-76.52C318,73,314.69,66.93,313,60.5,305.87,33.29,324.34,5.44,352.2.76A14.19,14.19,0,0,0,354.39,0h12c8.19,1.9,16.09,4.37,23,9.48a49.06,49.06,0,0,1-28,88.68,48.29,48.29,0,0,1-29.8-9.47L254.7,165.53c18,25.86,18.1,52.31-.48,79.18.72.77,1.58,1.73,2.49,2.64q53.88,53.88,107.74,107.78c1.88,1.89,3.18,2.57,6,1.26,14.43-6.6,31.86.79,37.22,15.45a27.8,27.8,0,1,1-51.84,20.1,27.12,27.12,0,0,1-1.2-3.94,28,28,0,0,1,2-18.35,4.38,4.38,0,0,0-.51-4Q300.93,310.2,245.58,255a2.83,2.83,0,0,0-.71-.47l-19.75,10.92,6.37,29a5.2,5.2,0,0,1,.22.77c.3,6.16,2.73,9.19,9.52,10.8,13.42,3.19,21.16,16.36,19.41,30-1.64,13.09-13.08,23.39-26.52,24a27.8,27.8,0,0,1-16.48-50.91c1-.65,2-1.27,3.1-2-2.92-13.09-5.8-26-8.74-39.24-24.72,1.65-44.45-7.3-59.34-27.1-1.25.63-2.43,1.17-3.57,1.79q-38.64,20.93-77.31,41.81c-2.66,1.43-3.41,2.76-2.71,5.86,4.35,19.18-10.5,39-29.84,41.2S3.12,319.88.57,302.31A7.81,7.81,0,0,0,0,300.83Zm254.7-88a49.9,49.9,0,1,0-49.88,49.92h.1A49.85,49.85,0,0,0,254.7,204.8v0ZM360.47,13.39a35.73,35.73,0,1,0,35.74,35.88A35.73,35.73,0,0,0,360.47,13.39ZM13.4,296.86a21.51,21.51,0,0,0,21.47,21.55H35A21.61,21.61,0,1,0,13.4,296.8Zm382.8,84.83a14.51,14.51,0,1,0-14.51,14.51h.16a14.46,14.46,0,0,0,14.35-14.51ZM233,346.7a14.39,14.39,0,1,0-.19,0ZM105.65,91.19a14.51,14.51,0,0,0-.7,29c.35,0,.69,0,1,0a14.51,14.51,0,0,0-.33-29Z"/><path class="cls-1" d="M205.84,169.94c18.77,1,32.89,15.08,33.82,33.83.2,4.12-2.31,7.24-6,7.49-4,.26-6.78-2.19-7.14-6.88-.51-6.73-2.73-12.8-8.47-16.38-3.9-2.43-8.68-3.63-13.22-4.77s-6.89-3.62-6.4-7.66C198.82,172.06,201.89,169.74,205.84,169.94Z"/><path class="cls-1" d="M361.6,28.43a20.66,20.66,0,0,1,19.56,19.48c.24,4.23-2,7.21-5.82,7.64-3.6.4-6.58-1.77-7.17-5.88-.71-4.93-3.2-7.5-8.15-8.22-4.3-.63-6.49-3.73-5.9-7.49S357.53,28.22,361.6,28.43Z"/></svg>