<svg id="Layer_1" data-name="Layer 1" xmlns="http://www.w3.org/2000/svg" viewBox="0 0 409.59 409.51"><title>biologiya</title><path d="M343,537.8c1.9-8.77,5.34-16.63,12.48-22.56a34.66,34.66,0,0,1,47.43,2.22,18.66,18.66,0,0,1,1.72,2.34L489.27,474c-4.06-10.88-5.71-21.89-4-33.35s6.3-21.34,13.68-31.05c-3-2.77-6.07-5.36-8.9-8.15q-12.37-12.22-24.58-24.62c-1.63-1.66-2.8-1.94-5.05-.9-14.73,6.8-32.08-.3-37.59-15.18-5.78-15.63,2.4-32.08,18.48-36.64,10.35-2.93,19.68-.39,27.14,7.2s9.88,17.14,6.81,27.64a55.59,55.59,0,0,1-2.18,5.49L508.75,400a63.41,63.41,0,0,1,78,0l76.52-76.52C661,318,657.69,311.93,656,305.5c-7.13-27.21,11.34-55.06,39.2-59.74a13.87,13.87,0,0,0,2.19-.76h12c8.19,1.9,16.09,4.37,23,9.48a49.06,49.06,0,0,1-28,88.68,48.29,48.29,0,0,1-29.8-9.47L597.7,410.53c18,25.86,18.1,52.31-.48,79.18.72.77,1.58,1.73,2.49,2.64q53.88,53.88,107.74,107.78c1.88,1.89,3.18,2.57,6,1.26,14.43-6.6,31.86.79,37.22,15.45A27.8,27.8,0,1,1,697.63,633a28,28,0,0,1,2-18.35,4.38,4.38,0,0,0-.51-4Q643.94,555.19,588.58,500a3.19,3.19,0,0,0-.71-.47l-19.75,10.92,6.37,29a5.56,5.56,0,0,1,.22.77c.3,6.16,2.73,9.19,9.52,10.8,13.42,3.19,21.16,16.36,19.41,30C602,594.11,590.56,604.41,577.12,605a27.8,27.8,0,0,1-16.48-50.91c1-.65,2-1.27,3.1-2-2.92-13.09-5.8-26-8.74-39.24-24.72,1.65-44.45-7.3-59.34-27.1-1.25.63-2.43,1.17-3.57,1.79q-38.64,20.92-77.31,41.81c-2.66,1.43-3.41,2.76-2.71,5.86,4.35,19.18-10.5,39-29.84,41.2s-36.11-11.53-38.66-29.1a7.65,7.65,0,0,0-.57-1.48Zm254.7-88a49.9,49.9,0,1,0-49.78,49.92A49.85,49.85,0,0,0,597.7,449.78ZM703.47,258.39a35.73,35.73,0,1,0,35.74,35.88A35.85,35.85,0,0,0,703.47,258.39ZM356.4,541.86A21.51,21.51,0,0,0,378,563.41a21.61,21.61,0,1,0-.11-43.22A21.55,21.55,0,0,0,356.4,541.86Zm382.8,84.83a14.51,14.51,0,1,0-14.35,14.51A14.45,14.45,0,0,0,739.2,626.69ZM576,591.7a14.57,14.57,0,0,0,14.69-14.3A14.59,14.59,0,1,0,576,591.7ZM448.65,336.19a14.51,14.51,0,1,0,.33,29,14.51,14.51,0,0,0-.33-29Z" transform="translate(-343 -245)"/><path d="M548.84,414.94c18.77,1,32.89,15.08,33.82,33.83.2,4.12-2.31,7.24-6,7.49-4,.26-6.78-2.19-7.14-6.88-.51-6.73-2.73-12.8-8.47-16.38-3.9-2.43-8.68-3.63-13.22-4.77-4.39-1.11-6.89-3.62-6.4-7.66C541.82,417.06,544.89,414.74,548.84,414.94Z" transform="translate(-343 -245)"/><path d="M704.6,273.43a20.66,20.66,0,0,1,19.56,19.48c.24,4.23-2,7.21-5.82,7.64-3.6.4-6.58-1.77-7.17-5.88-.71-4.93-3.2-7.5-8.15-8.22-4.3-.63-6.49-3.73-5.9-7.49S700.53,273.22,704.6,273.43Z" transform="translate(-343 -245)"/></svg>