<svg id="Layer_1" data-name="Layer 1" xmlns="http://www.w3.org/2000/svg" viewBox="0 0 409.52 365.03"><title>fizika</title><path d="M761.6,400.4c-3.42,15.76-13.18,27-25.85,36.12-2.74,2-5.56,2.64-8.49.61a5.71,5.71,0,0,1-2.29-7.05c.66-1.74,2.3-3.16,3.68-4.55,4.76-4.8,10.25-9,14.28-14.39,7.74-10.28,7.27-21.28-.22-31.82-6.5-9.15-15.49-15.35-25-20.78-14.41-8.21-29.88-13.9-46.25-18.45-.47,1.24-.92,2.44-1.38,3.63-6.35,16.5-12.63,33-19.14,49.48a8.1,8.1,0,0,0,.06,6.71c6.79,16.75,13.41,33.57,20.34,51,5.95-1.91,12.64-3.92,19.24-6.2,4.39-1.53,8.65-3.45,13-5.15,5.28-2.07,8.93-1,10.49,2.91,1.49,3.77-.3,7.17-5.41,9.09-9.58,3.61-19.26,6.95-28.91,10.39-1.74.62-3.5,1.16-5.52,1.83,1.57,7.82,3.35,15.44,4.59,23.14,3.21,20,4.78,40-1.16,59.81-4.43,14.76-13,25.94-28.67,30-11.55,3-22.74.74-33.62-3.44-19.36-7.44-35.5-19.79-50.77-33.44-2.58-2.31-5.09-4.71-7.64-7-.17-.16-.46-.2-.17-.08C546,541.36,535.82,550.12,525,558.07c-11.42,8.4-23.94,14.88-37.9,18.23-25,6-44.54-5.09-52-29.78-4.73-15.73-4.86-31.83-2.7-47.93,1.56-11.58,3.78-23.07,5.77-35-6.37-2.12-13.08-4.15-19.66-6.57-17.84-6.56-34.89-14.61-49.18-27.53-9.58-8.66-16.63-18.86-17.26-32.22-.7-14.93,6.68-26.29,17.28-35.8,18.19-16.29,40.3-25,63.18-32.21l5.39-1.66c-1.06-4.95-2.2-9.7-3.06-14.49-1.32-7.34-2.54-14.69-3.59-22.07-.6-4.24,1.69-7.41,5.37-8.06s6.65,1.8,7.44,6.1c1.88,10.07,3.64,20.16,5.47,30.24.29,1.56.73,3.08,1.14,4.73,9.69-1.81,19.17-3.8,28.72-5.32,9.33-1.49,18.75-2.44,28.11-3.79a6.7,6.7,0,0,0,3.94-2c11.58-14.1,23-28.3,34.52-42.49.24-.3.42-.66,1-1.58-5.67-5-11.26-10.31-17.18-15.18-11.66-9.6-23.91-18.44-38.31-23.44a65.52,65.52,0,0,0-18.66-3.66c-10.78-.42-18.82,5.14-23,14.86-2.76,6.37-3.9,13.46-5.74,20.23-.31,1.15-.39,2.37-.77,3.49-1.1,3.26-3.59,4.59-6.84,4.21s-5.62-2.51-5.4-5.86c1.16-17.43,5.51-33.61,21-44,12.43-8.35,26-7.39,39.57-3.07,17.44,5.54,32.29,15.6,46.28,27,6.28,5.13,12.21,10.69,17.93,15.73,10.54-8.54,20.71-17.36,31.48-25.35,11.82-8.76,24.7-15.65,39.23-19.1,24.79-5.88,44.4,5.12,51.78,29.51,4.76,15.72,5,31.83,2.79,47.93-1.48,10.93-3.87,21.74-5.84,32.6-.14.77-.18,1.56-.3,2.66,3.6,1.13,7.15,2.18,10.65,3.35,20.58,6.82,40.41,15.1,57.09,29.49,9.12,7.86,16,17.07,18.3,29.18,0,.22.34.38.52.57Zm-205-74.79c-11.84.46-23.7.81-35.54,1.49a7.5,7.5,0,0,0-5.14,2.7,473.52,473.52,0,0,0-37.09,64.3,6.1,6.1,0,0,0,0,4.67A477.12,477.12,0,0,0,515,461.32a6.18,6.18,0,0,0,4.05,2.35,453.88,453.88,0,0,0,74.29,0,6.69,6.69,0,0,0,4.35-2.56,470.69,470.69,0,0,0,36-62.17,6.59,6.59,0,0,0,0-5,475,475,0,0,0-36.87-64,7.46,7.46,0,0,0-5-2.91C580.13,326.39,568.4,326.05,556.65,325.61ZM662.49,324c1.75-9.52,3.78-18.73,5.1-28,2.29-16.17,3-32.34-1.84-48.3-4.2-13.83-14.11-22.19-26.73-21.44a63,63,0,0,0-16.36,3.22c-16,5.46-29.45,15.29-42.22,26.08-5.14,4.34-10,9-14.38,12.93,12,15.21,23.46,29.87,35.09,44.44a6.64,6.64,0,0,0,4,2c11.2,1.64,22.44,3,33.62,4.7C646.46,320.76,654.12,322.42,662.49,324ZM566.08,523.66c5,4.45,10.34,9.51,16,14.1,14.26,11.52,29.18,21.92,47.45,26.26,13.4,3.19,25.2-.58,31-11.22a67.94,67.94,0,0,0,6.51-18.68c2.55-12.37,1.76-24.95,0-37.38-1.43-9.83-3.5-19.57-5.29-29.38-1.39.09-2.05.09-2.69.19-17.74,2.77-35.49,5.52-53.22,8.39a6.27,6.27,0,0,0-3.61,2C590.25,493,578.41,508,566.08,523.66ZM547,523.07c-.63-.87-.92-1.31-1.24-1.71-11.67-14.37-23.28-28.79-35.1-43a9.23,9.23,0,0,0-5.36-2.58c-7.76-1.19-15.6-1.84-23.36-3.09C471.83,471,461.8,469,451.1,467.07c-1.74,9.44-3.8,18.78-5.13,28.24-2.27,16.17-3,32.35,1.95,48.29,4.07,13.21,12.8,21,25.36,21.06a53.16,53.16,0,0,0,17.54-3.11C512.85,553.84,530,538.89,547,523.07ZM441.35,339.73c-10.64,3.95-21.14,7.34-31.2,11.71-13.47,5.86-26.34,12.92-36.27,24.15-5.82,6.57-9.8,14-8.44,23.21,1.24,8.5,6.15,14.94,12.21,20.52,14.1,13,31.29,20.43,49,26.78,5.07,1.82,10.27,3.28,15.34,4.89a16.7,16.7,0,0,0,.81-1.5c6.49-17,13-34,19.39-51.05a7.41,7.41,0,0,0-.36-4.78c-5-12.74-10.27-25.39-15.26-38.14C444.68,350.61,443.25,345.5,441.35,339.73Zm171.09-11.27,30.15,52.36c5.5-14.82,10.86-29.3,16.47-44.45Zm-112.31.14-46.41,7.95,16.38,44.22C480.23,363.18,490,346.3,500.13,328.6Zm86.32,149.23H526.14c10.16,12.23,19.89,23.93,30.14,36.25ZM585.4,313l-29.1-35-28.94,35Zm72.77,141.66L642.45,412c-9.82,17.08-19.2,33.39-28.94,50.31Zm-159,7.6-29-50.17c-5.19,14.14-10.27,28-15.58,42.49Z" transform="translate(-352.08 -213.14)"/><path d="M557,362.85c17.83.19,32.63,15.11,32.49,32.75a33,33,0,0,1-32.67,32.58c-17.85,0-33-15.3-32.7-33C524.47,377.31,539.35,362.66,557,362.85ZM556.87,415a19.54,19.54,0,1,0-19.56-19.42A19.39,19.39,0,0,0,556.87,415Z" transform="translate(-352.08 -213.14)"/></svg>