<svg id="Layer_1" data-name="Layer 1" xmlns="http://www.w3.org/2000/svg" viewBox="0 0 409.58 364.93"><defs><style>.cls-1{fill:#fff;}</style></defs><title>fizika-oq</title><path class="cls-1" d="M409.52,187.26c-3.42,15.76-13.18,27-25.85,36.12-2.74,2-5.56,2.64-8.49.61a5.72,5.72,0,0,1-2.29-7.05c.66-1.74,2.3-3.16,3.68-4.55,4.76-4.8,10.25-9,14.28-14.39,7.74-10.28,7.27-21.28-.22-31.82-6.5-9.15-15.49-15.35-25-20.78-14.41-8.21-29.88-13.9-46.25-18.45-.47,1.24-.92,2.44-1.38,3.63-6.35,16.5-12.63,33-19.14,49.48a8.1,8.1,0,0,0,.06,6.71c6.79,16.75,13.41,33.57,20.34,51,5.95-1.91,12.64-3.92,19.24-6.2,4.39-1.53,8.65-3.45,13-5.15,5.28-2.07,8.93-1,10.49,2.91s-.3,7.17-5.41,9.09c-9.58,3.61-19.26,7-28.91,10.39-1.74.62-3.5,1.16-5.52,1.83,1.57,7.82,3.35,15.44,4.59,23.14,3.21,20,4.78,40-1.16,59.81-4.43,14.76-13,25.94-28.67,30-11.55,3-22.74.74-33.62-3.44-19.36-7.44-35.5-19.79-50.77-33.44-2.58-2.31-5.09-4.71-7.64-7-.17-.16-.46-.2-.17-.08-10.79,8.59-21,17.35-31.79,25.3-11.42,8.4-23.94,14.88-37.9,18.23-25,6-44.54-5.09-52-29.78-4.73-15.73-4.86-31.83-2.7-47.93,1.56-11.58,3.78-23.07,5.77-35-6.37-2.12-13.08-4.15-19.66-6.57-17.84-6.56-34.89-14.61-49.18-27.53C7.67,207.69.62,197.49,0,184.13c-.7-14.93,6.68-26.29,17.28-35.8,18.19-16.29,40.3-25,63.18-32.21l5.39-1.66c-1.06-4.95-2.2-9.7-3.06-14.49-1.32-7.34-2.54-14.69-3.59-22.07-.6-4.24,1.69-7.41,5.37-8.06s6.65,1.8,7.44,6.1C93.88,86,95.64,96.1,97.47,106.18c.29,1.56.73,3.08,1.14,4.73,9.69-1.81,19.17-3.8,28.72-5.32,9.33-1.49,18.75-2.44,28.11-3.79a6.71,6.71,0,0,0,3.94-2c11.58-14.1,23-28.3,34.52-42.49.24-.3.42-.66,1-1.58-5.67-5-11.26-10.31-17.18-15.18-11.66-9.6-23.91-18.44-38.31-23.44a65.73,65.73,0,0,0-18.66-3.66c-10.78-.42-18.82,5.14-23,14.86C95,34.68,93.85,41.77,92,48.54c-.31,1.15-.39,2.37-.77,3.49-1.1,3.26-3.59,4.59-6.84,4.21s-5.62-2.51-5.4-5.86c1.16-17.43,5.51-33.61,21-44C112.43-2,126-1,139.57,3.31c17.44,5.54,32.29,15.6,46.28,27C192.13,35.44,198.06,41,203.78,46c10.54-8.54,20.71-17.36,31.48-25.35C247.08,11.93,260,5,274.49,1.59c24.79-5.88,44.4,5.12,51.78,29.51,4.76,15.72,5,31.83,2.79,47.93-1.48,10.93-3.87,21.74-5.84,32.6-.14.77-.18,1.56-.3,2.66,3.6,1.13,7.15,2.18,10.65,3.35,20.58,6.82,40.41,15.1,57.09,29.49,9.12,7.86,16,17.07,18.3,29.18,0,.22.34.38.52.57Zm-205-74.79c-11.84.46-23.7.81-35.54,1.49a7.49,7.49,0,0,0-5.14,2.7A473.07,473.07,0,0,0,126.75,181a6.1,6.1,0,0,0,0,4.67,477.91,477.91,0,0,0,36.17,62.55,6.18,6.18,0,0,0,4.05,2.35,453.88,453.88,0,0,0,74.29,0,6.67,6.67,0,0,0,4.35-2.56,470.69,470.69,0,0,0,36-62.17,6.56,6.56,0,0,0,0-5,474.87,474.87,0,0,0-36.87-64,7.49,7.49,0,0,0-5-2.91c-11.69-.64-23.42-1-35.17-1.42Zm105.89-1.61c1.75-9.52,3.78-18.73,5.1-28,2.29-16.17,3-32.34-1.84-48.3-4.2-13.83-14.11-22.19-26.73-21.44a63,63,0,0,0-16.36,3.22c-16,5.46-29.45,15.29-42.22,26.08-5.14,4.34-10,9-14.38,12.93,12,15.21,23.46,29.87,35.09,44.44a6.62,6.62,0,0,0,4,2c11.2,1.64,22.44,3,33.62,4.7C294.38,107.62,302,109.28,310.41,110.86ZM214,310.52c5,4.45,10.34,9.51,16,14.1,14.26,11.52,29.18,21.92,47.45,26.26,13.4,3.19,25.2-.58,31-11.22A68.09,68.09,0,0,0,315,321c2.55-12.37,1.76-25,0-37.38-1.43-9.83-3.5-19.57-5.29-29.38-1.39.09-2.05.09-2.69.19-17.74,2.77-35.49,5.52-53.22,8.39a6.3,6.3,0,0,0-3.61,2C238.17,279.86,226.33,294.86,214,310.52Zm-19.08-.59c-.63-.87-.92-1.31-1.24-1.71-11.67-14.37-23.28-28.79-35.1-43a9.19,9.19,0,0,0-5.36-2.58c-7.76-1.19-15.6-1.84-23.36-3.09-10.11-1.69-20.14-3.69-30.84-5.62-1.74,9.44-3.8,18.78-5.13,28.24-2.27,16.17-3,32.35,2,48.29,4.07,13.21,12.8,21,25.36,21.06a53,53,0,0,0,17.54-3.11C160.77,340.7,177.92,325.75,194.92,309.93ZM89.27,126.59c-10.64,3.95-21.14,7.34-31.2,11.71-13.47,5.86-26.34,12.92-36.27,24.15-5.82,6.57-9.8,14-8.44,23.21,1.24,8.5,6.15,14.94,12.21,20.52,14.1,13,31.29,20.43,49,26.78,5.07,1.82,10.27,3.28,15.34,4.89a15.56,15.56,0,0,0,.81-1.5c6.49-17,13-34,19.39-51a7.4,7.4,0,0,0-.36-4.78c-5-12.74-10.27-25.39-15.26-38.14C92.6,137.47,91.17,132.36,89.27,126.59Zm171.09-11.27,30.15,52.36c5.5-14.82,10.86-29.3,16.47-44.45Zm-112.31.14-46.41,8L118,167.63c10.13-17.59,19.9-34.47,30-52.17Zm86.32,149.23H174.06c10.16,12.23,19.89,23.93,30.14,36.25ZM233.32,99.86l-29.1-35-28.94,35Zm72.77,141.66-15.72-42.66c-9.82,17.08-19.2,33.39-28.94,50.31Zm-159,7.6-29-50.17c-5.19,14.14-10.27,28-15.58,42.49Z" transform="translate(0.06 -0.03)"/><path class="cls-1" d="M204.92,149.71c17.83.19,32.63,15.11,32.49,32.75A33,33,0,0,1,204.74,215c-17.85,0-33-15.3-32.7-33C172.39,164.17,187.27,149.52,204.92,149.71Zm-.13,52.15a19.54,19.54,0,1,0-19.56-19.52v.1a19.39,19.39,0,0,0,19.36,19.42Z" transform="translate(0.06 -0.03)"/></svg>