<svg id="Layer_1" data-name="Layer 1" xmlns="http://www.w3.org/2000/svg" viewBox="0 0 337.95 409.55"><defs><style>.cls-1{fill:#f42439;}.cls-2{isolation:isolate;}</style></defs><title>ielts-qizil</title><path class="cls-1" d="M238.56,0q25.53,25.65,51,51.29c4.33,4.35,8.77,8.59,12.94,13.08a7.83,7.83,0,0,1,2,4.81q.15,109.4.08,218.78c0,.65-.09,1.29-.22,2.94-5.6-4.54-10.76-8.54-15.66-12.86-.79-.7-.51-2.76-.51-4.19V81.4H224.56V16.53H16.43V346.92H133.56c1.28,5.47,2.49,10.68,3.77,16.19H.22c-.08-1.38-.21-2.67-.21-4V3.11C0,2.05.11,1,.16-.08Z" transform="translate(-0.01 0.08)"/><path class="cls-1" d="M338,351.73l-38.62,5.06a17.53,17.53,0,0,1-3.95.51c-9.36-.83-13.23,4.18-15.79,12.62-3.62,12-8.66,23.46-13.11,35.15-.5,1.33-1.09,2.62-1.83,4.4-13.61-17.21-26.9-34-40.47-51.14,24.46-19.32,48.67-38.46,73.24-57.88Z" transform="translate(-0.01 0.08)"/><path class="cls-1" d="M95.56,323.48,146.72,283l57.84,73.21-51.23,40.49c-1-7-1.85-13.31-2.69-19.66-1.39-10.57-2.63-21.15-4.22-31.68-.21-1.36-1.94-3.05-3.35-3.6-14.49-5.68-29-11.16-43.6-16.71C98.37,324.64,97.27,324.19,95.56,323.48Z" transform="translate(-0.01 0.08)"/><path class="cls-1" d="M221.64,161.07h18.18a5.78,5.78,0,0,1,.69,1.24c1.73,6.13,7.55,9,13.53,6.36,1.56-.69,3.4-2.68,3.48-4.17s-1.64-3.66-3.12-4.31a119.62,119.62,0,0,0-12.09-4c-1.9-.6-3.84-1.08-5.71-1.76-6.73-2.47-12.18-6.09-12.6-14.2-.44-8.5,3.1-14.94,10.72-18.41a33.76,33.76,0,0,1,29.38.3c6.61,3.13,9.63,8.59,9.75,16.64-5.26,0-10.54.05-15.81-.08-.62,0-1.43-.92-1.78-1.6A9.4,9.4,0,0,0,244,133.33c-2.95,1.61-3.08,4.59.1,6.07a94.7,94.7,0,0,0,10.9,3.75c3.16,1,6.41,1.77,9.53,2.88,6.91,2.47,11.8,6.86,12.21,14.66s-2.36,14.37-9.46,18c-12,6.17-24.39,6.32-36.33-.24C224.5,174.89,221.5,168.94,221.64,161.07Z" transform="translate(-0.01 0.08)"/><path class="cls-1" d="M38.91,265.9V251.14h113V265.9Z" transform="translate(-0.01 0.08)"/><path class="cls-1" d="M174.13,283.23c-.25-27.46,22.33-50.22,49.91-50.32a50,50,0,1,1-49.91,50.32Zm94,0a44,44,0,1,0-44,44h.13a44.17,44.17,0,0,0,43.89-44Z" transform="translate(-0.01 0.08)"/><path class="cls-1" d="M218.05,136h-17V181.4H182.2V136.11h-17V120.4h52.89Z" transform="translate(-0.01 0.08)"/><path class="cls-1" d="M38.92,235.86V221.19h113v14.67Z" transform="translate(-0.01 0.08)"/><path class="cls-1" d="M124.94,120.4h18.48v45.4h27v15.56H124.94Z" transform="translate(-0.01 0.08)"/><path class="cls-1" d="M49.35,181.51H30.85V120.4h18.5Z" transform="translate(-0.01 0.08)"/><path class="cls-1" d="M183.06,282.8a41.22,41.22,0,0,1,41.69-40.63c22.5.36,40.85,19.05,40.6,41.35-.25,22.6-19.2,41.27-41.52,40.92C201.13,324.08,182.72,305.28,183.06,282.8Zm60.64,26.75c-.77-4.79-.85-8.76-2.1-12.32-2.51-7.11-.29-12.06,5.45-16.36,3.09-2.31,5.61-5.36,8.85-8.52-6.84-1-12.62-2.05-18.44-2.64a5.51,5.51,0,0,1-5-3.66c-2.49-5.36-5.21-10.62-8.21-16.68-2.95,5.9-5.61,10.92-7.95,16.08-1.23,2.69-2.72,4.07-5.88,4.34-5.72.49-11.4,1.62-17.64,2.57,3.61,3.61,6.4,7.09,9.86,9.7,5.07,3.82,6.13,8.21,4.36,14.11-1.21,4.05-1.45,8.39-2.25,13.38,6.17-3.25,11.38-6.18,16.79-8.7a7.15,7.15,0,0,1,5.34,0C232.24,303.34,237.45,306.27,243.7,309.55Z" transform="translate(-0.01 0.08)"/><g class="cls-2"><path class="cls-1" d="M64.38,181.27v-61.1H110v12.31H80.67v11.61h27.48v12.22H80.67V169H110v12.31Z" transform="translate(-0.01 0.08)"/></g></svg>