<?xml version="1.0" encoding="utf-8"?>
<!-- Generator: Adobe Illustrator 22.0.1, SVG Export Plug-In . SVG Version: 6.00 Build 0)  -->
<svg version="1.1" id="Layer_1" xmlns="http://www.w3.org/2000/svg" xmlns:xlink="http://www.w3.org/1999/xlink" x="0px" y="0px"
	 viewBox="0 0 338 409.5" style="enable-background:new 0 0 338 409.5;" xml:space="preserve">
<style type="text/css">
	.st0{enable-background:new    ;}
</style>
<title>ielts</title>
<path d="M238.6,0c17,17.1,34,34.2,51,51.3c4.3,4.4,8.8,8.6,12.9,13.1c1.2,1.3,1.9,3,2,4.8c0.1,72.9,0.1,145.9,0.1,218.8
	c0,0.7-0.1,1.3-0.2,2.9c-5.6-4.5-10.8-8.5-15.7-12.9c-0.8-0.7-0.5-2.8-0.5-4.2c0-62.3,0-124.5,0-186.8v-5.7h-63.6V16.5H16.4v330.4
	h117.1c1.3,5.5,2.5,10.7,3.8,16.2H0.2c-0.1-1.4-0.2-2.7-0.2-4c0-118.7,0-237.3,0-356C0,2.1,0.1,1,0.2-0.1L238.6,0z"/>
<path d="M338,351.7l-38.6,5.1c-1.3,0.3-2.6,0.5-4,0.5c-9.4-0.8-13.2,4.2-15.8,12.6c-3.6,12-8.7,23.5-13.1,35.2
	c-0.5,1.3-1.1,2.6-1.8,4.4c-13.6-17.2-26.9-34-40.5-51.1c24.5-19.3,48.7-38.5,73.2-57.9L338,351.7z"/>
<path d="M95.6,323.5l51.2-40.5l57.8,73.2l-51.2,40.5c-1-7-1.8-13.3-2.7-19.7c-1.4-10.6-2.6-21.2-4.2-31.7c-0.2-1.4-1.9-3-3.3-3.6
	c-14.5-5.7-29-11.2-43.6-16.7C98.4,324.6,97.3,324.2,95.6,323.5z"/>
<path d="M221.6,161.1h18.2c0.3,0.4,0.5,0.8,0.7,1.2c1.7,6.1,7.5,9,13.5,6.4c1.6-0.7,3.4-2.7,3.5-4.2s-1.6-3.7-3.1-4.3
	c-4-1.5-8-2.9-12.1-4c-1.9-0.6-3.8-1.1-5.7-1.8c-6.7-2.5-12.2-6.1-12.6-14.2c-0.4-8.5,3.1-14.9,10.7-18.4c9.3-4.4,20.1-4.3,29.4,0.3
	c6.6,3.1,9.6,8.6,9.8,16.6c-5.3,0-10.5,0-15.8-0.1c-0.6,0-1.4-0.9-1.8-1.6c-2.5-4.3-7.8-5.9-12.3-3.8c-3,1.6-3.1,4.6,0.1,6.1
	c3.6,1.5,7.2,2.7,10.9,3.8c3.2,1,6.4,1.8,9.5,2.9c6.9,2.5,11.8,6.9,12.2,14.7s-2.4,14.4-9.5,18c-12,6.2-24.4,6.3-36.3-0.2
	C224.5,174.9,221.5,168.9,221.6,161.1z"/>
<path d="M38.9,265.9v-14.8h113v14.8H38.9z"/>
<path d="M174.1,283.2c-0.3-27.5,22.3-50.2,49.9-50.3c27.6,0,50,22.3,50.1,49.9c0,27.6-22.3,50-49.9,50.1
	C196.7,333,174.3,310.8,174.1,283.2z M268.1,283.2c0-24.3-19.7-44-44-44s-44,19.7-44,44s19.7,44,44,44c0,0,0.1,0,0.1,0
	C248.5,327.1,268.1,307.4,268.1,283.2L268.1,283.2z"/>
<path d="M218,136h-17v45.4h-18.8v-45.3h-17v-15.7h52.9L218,136z"/>
<path d="M38.9,235.9v-14.7h113v14.7L38.9,235.9z"/>
<path d="M124.9,120.4h18.5v45.4h27v15.6h-45.5V120.4z"/>
<path d="M49.3,181.5H30.8v-61.1h18.5V181.5z"/>
<path d="M183.1,282.8c0.3-22.7,19-40.9,41.7-40.6c22.5,0.4,40.8,19,40.6,41.3c-0.3,22.6-19.2,41.3-41.5,40.9
	C201.1,324.1,182.7,305.3,183.1,282.8z M243.7,309.6c-0.8-4.8-0.8-8.8-2.1-12.3c-2.5-7.1-0.3-12.1,5.5-16.4c3.1-2.3,5.6-5.4,8.8-8.5
	c-6.8-1-12.6-2-18.4-2.6c-2.3-0.1-4.2-1.5-5-3.7c-2.5-5.4-5.2-10.6-8.2-16.7c-3,5.9-5.6,10.9-8,16.1c-1.2,2.7-2.7,4.1-5.9,4.3
	c-5.7,0.5-11.4,1.6-17.6,2.6c3.6,3.6,6.4,7.1,9.9,9.7c5.1,3.8,6.1,8.2,4.4,14.1c-1.2,4-1.5,8.4-2.3,13.4c6.2-3.3,11.4-6.2,16.8-8.7
	c1.7-0.7,3.6-0.7,5.3,0C232.2,303.3,237.5,306.3,243.7,309.6z"/>
<g class="st0">
	<path d="M64.4,181.3v-61.1H110v12.3H80.7v11.6h27.5v12.2H80.7V169H110v12.3H64.4z"/>
</g>
</svg>
