<svg id="Layer_1" data-name="Layer 1" xmlns="http://www.w3.org/2000/svg" viewBox="0 0 409.69 409.79"><defs><style>.cls-1{fill:#fff;}</style></defs><title>kimyo-oq</title><path class="cls-1" d="M232,0c5.56,1.91,7,6.13,7,11.58-.07,35.59,0,71.18-.13,106.77,0,3.94.88,5.63,5,6.76,29.22,8.09,53.43,24.07,72.88,47.31.33.39.59.85,1.08,1.57l-13.38,10.75c-1-1.27-1.79-2.46-2.73-3.54a126,126,0,0,0-69-41.37c-9.54-2.16-10.9-4-10.9-14V17.27H179.2v112.4c0,7.37-1.83,9.52-8.72,11.86-7.42,2.51-14.69,5.46-22,8.22-2.5.94-3.55,2.5-3.52,5.42.16,17.46,0,34.92.15,52.38a10.92,10.92,0,0,0,1.58,5.56Q183,269.54,219.55,325.87a4.66,4.66,0,0,0,2.29,2V233.34c0-8.44,1.67-16.39,6.93-23.27,7.24-9.49,17-13.81,28.75-13.83q65-.11,130,0c11.53,0,18.47,6.12,22.15,16.59v8c-2.06,6.58-6.51,11.42-11.39,16-3.88,3.66-7.46,7.63-11.38,11.24a8.51,8.51,0,0,0-2.9,7q.15,55.19.06,110.36c0,25.67-18.46,44.17-44,44.23q-37.18.07-74.37-.05a53.6,53.6,0,0,1-11.07-1.26c-9.73-2.11-17.38-7.66-23.72-15.36-9.85,12.37-22.74,17-38.1,16.77-28.25-.32-56.51-.09-84.76-.09H42.86c-13.46,0-24.46-5.31-33.17-15.59-5.23-6.18-7.77-13.51-9.58-21.2V361.6C3,354.82,5.27,347.66,9,341.33,33.58,299,58.53,256.82,83.26,214.52a16.47,16.47,0,0,0,2.15-7.81c.14-34,.08-68,.1-101.95,0-7.81,3.07-10.88,10.86-10.94,6.53,0,13.06,0,19.59,0s12.79-.1,19.19,0c6.67.14,9.81,3.3,9.95,9.82.09,4.26,0,8.53,0,12.79v15.83c4.87-1.83,9-3.71,13.3-4.88,3.25-.89,4-2.49,3.95-5.64-.11-36.78,0-73.56-.14-110.34,0-5.39,1.51-9.33,6.68-11.42ZM102.4,111.22v4.63c0,31.46.08,62.93-.12,94.39a21.84,21.84,0,0,1-2.79,10.16c-8.34,14.71-17,29.21-25.63,43.79Q47.61,308.74,21.4,353.4c-10.72,18.33.29,39,21.18,39.14,51.2.28,102.4.13,153.59.06,9.58,0,17.46-3.72,22.29-12.31,5.23-9.28,4.08-18.31-1.62-27.11Q173.9,286.9,131.2,220.51a20.46,20.46,0,0,1-3-10.38c-.24-31.47-.14-62.93-.14-94.4v-4.51Zm219,102.18h-63.2c-12.43,0-19.15,6.6-19.16,18.88q-.06,64.59,0,129.19c0,3.84-.07,7.82.84,11.51,3.1,12.47,12.86,19.55,26.66,19.59,24.26.07,48.53.15,72.79-.11a32.82,32.82,0,0,0,13.1-2.76C363,384.78,367,375.61,367,364.29q0-56.79-.08-113.59A14.86,14.86,0,0,1,371.72,239c6.38-6,12.57-12.31,18.64-18.68a6,6,0,0,0,1.5-4.77c-.28-1-2.62-1.62-4.14-2.1a10.93,10.93,0,0,0-3.18-.07Z" transform="translate(0.02 0.02)"/><path class="cls-1" d="M0,94.4c1.78-7.65,4.93-14.46,11.29-19.53a30.25,30.25,0,0,1,35-1.61c10.64,7,15.77,20.8,12.18,32.84C54.54,119.26,43.14,128,29.85,128a30,30,0,0,1-28.29-20.7Q.78,104.83,0,102.4Zm30-9A12.73,12.73,0,0,0,17.11,97.89a13,13,0,0,0,12.88,13A12.72,12.72,0,0,0,42.58,98.11,12.54,12.54,0,0,0,30.21,85.4H30Z" transform="translate(0.02 0.02)"/><path class="cls-1" d="M362.09,179.16c-16.42-.48-29.64-14.19-29.25-30.32.4-16.39,14.26-29.85,30.22-29.34,16.57.53,29.84,14.1,29.44,30.11C392.09,166.29,378.35,179.63,362.09,179.16Zm13.27-29.86a12.56,12.56,0,0,0-12.46-12.66h-.18a12.74,12.74,0,0,0-12.85,12.54,13,13,0,0,0,12.94,13,12.76,12.76,0,0,0,12.55-12.88Z" transform="translate(0.02 0.02)"/><path class="cls-1" d="M333,59.85a25.56,25.56,0,0,1,25.38,25.47c0,14-11.85,25.81-25.76,25.59A25.53,25.53,0,0,1,333,59.85Zm-.3,33.86a8.49,8.49,0,1,0-8.32-8.93c0,.17,0,.35,0,.53A8.44,8.44,0,0,0,332.69,93.71Z" transform="translate(0.02 0.02)"/><path class="cls-1" d="M170.62,196.46h16.92V213.4c-5.17,0-10.17.07-15.16-.1-.61,0-1.66-1.31-1.68-2C170.55,206.46,170.62,201.69,170.62,196.46Z" transform="translate(0.02 0.02)"/><path class="cls-1" d="M162.5,162.4H179V179H162.5Z" transform="translate(0.02 0.02)"/><path class="cls-1" d="M188,247.09V230.62h16.54v16.47Z" transform="translate(0.02 0.02)"/><path class="cls-1" d="M68.38,8.64A25.54,25.54,0,1,1,42.73,34.07,25.53,25.53,0,0,1,68.38,8.64ZM68.2,42.51a8.53,8.53,0,0,0,8.54-8.21,8.74,8.74,0,0,0-8.59-8.64,8.53,8.53,0,0,0-8.25,8.5,8.31,8.31,0,0,0,8.27,8.35Z" transform="translate(0.02 0.02)"/><path class="cls-1" d="M59.78,213.14H42.86v-16.9c5.17,0,10.18-.07,15.17.1.61,0,1.65,1.31,1.67,2C59.85,203.15,59.78,207.92,59.78,213.14Z" transform="translate(0.02 0.02)"/><path class="cls-1" d="M34,170.4H17.29V153.88H34Z" transform="translate(0.02 0.02)"/><path class="cls-1" d="M122.91,248.11C101.21,285,79.84,321.34,58.14,358.22h44v16.84a18.15,18.15,0,0,1-2.55.33H44.83c-6.16,0-9.95-2.8-10-7.91a15.7,15.7,0,0,1,2.47-7.37q33.2-56.72,66.57-113.24c1.41-2.39,2.85-4.75,4.42-7.37Z" transform="translate(0.02 0.02)"/><path class="cls-1" d="M171,350.06h16.79c0,5.16.08,10.16-.11,15.15,0,.63-1.55,1.66-2.41,1.7-4.64.16-9.28.08-14.27.08Z" transform="translate(0.02 0.02)"/><path class="cls-1" d="M145.2,332.59V316.12H162v16.47Z" transform="translate(0.02 0.02)"/><path class="cls-1" d="M332.63,247.61h16.93c.08,1.46.24,2.85.24,4.25V364.15c0,8.47-2.78,11.24-11.23,11.25H307.51V358.6h25.12Z" transform="translate(0.02 0.02)"/><path class="cls-1" d="M256.2,247.61h25.14V264.3H256.2Z" transform="translate(0.02 0.02)"/><path class="cls-1" d="M281.27,332.73h-25V316h25Z" transform="translate(0.02 0.02)"/><path class="cls-1" d="M272.79,350.11v16.64H256.2V350.11Z" transform="translate(0.02 0.02)"/><path class="cls-1" d="M256.2,281.72h16.45V298.4H256.2Z" transform="translate(0.02 0.02)"/></svg>