<svg id="Layer_1" data-name="Layer 1" xmlns="http://www.w3.org/2000/svg" viewBox="0 0 409.6 409.7"><title>kimyo</title><path d="M628.8,233.6c5.56,1.91,7,6.13,7,11.58-.07,35.59,0,71.18-.13,106.77,0,3.94.88,5.63,5,6.76,29.22,8.09,53.43,24.07,72.88,47.31.33.39.59.85,1.08,1.57l-13.38,10.75c-1-1.27-1.79-2.46-2.73-3.54a125.94,125.94,0,0,0-69-41.37c-9.54-2.16-10.9-4-10.9-14V250.87H576v112.4c0,7.37-1.83,9.52-8.72,11.86-7.42,2.51-14.69,5.46-22,8.22-2.5.94-3.55,2.5-3.52,5.42.16,17.46,0,34.92.15,52.38a10.93,10.93,0,0,0,1.58,5.56q36.35,56.43,72.86,112.76a4.66,4.66,0,0,0,2.29,2V466.94c0-8.44,1.67-16.39,6.93-23.27,7.24-9.49,17-13.81,28.75-13.83q65-.1,130,0c11.53,0,18.47,6.12,22.15,16.59v8c-2.06,6.58-6.51,11.42-11.39,16-3.88,3.66-7.46,7.63-11.38,11.24a8.53,8.53,0,0,0-2.9,7q.15,55.18.06,110.36c0,25.67-18.46,44.17-44,44.23q-37.18.07-74.37-.05a53.6,53.6,0,0,1-11.07-1.26c-9.73-2.11-17.38-7.66-23.72-15.36-9.85,12.37-22.74,17-38.1,16.77-28.25-.32-56.51-.09-84.76-.09q-32.6,0-65.18,0c-13.46,0-24.46-5.31-33.17-15.59-5.23-6.18-7.77-13.51-9.58-21.2V595.2c2.91-6.78,5.16-13.94,8.84-20.27,24.63-42.35,49.58-84.51,74.31-126.81a16.47,16.47,0,0,0,2.15-7.81c.14-34,.08-68,.1-101.95,0-7.81,3.07-10.88,10.86-10.94,6.53-.05,13.06,0,19.59,0s12.79-.1,19.19,0c6.67.14,9.81,3.3,9.95,9.82.09,4.26,0,8.53,0,12.79v15.83c4.87-1.83,9-3.71,13.3-4.88,3.25-.89,4-2.49,3.95-5.64-.11-36.78,0-73.56-.14-110.34,0-5.39,1.51-9.33,6.68-11.42ZM499.2,344.82v4.63c0,31.46.08,62.93-.12,94.39A21.83,21.83,0,0,1,496.29,454c-8.34,14.71-17.05,29.21-25.63,43.79Q444.41,542.34,418.2,587c-10.72,18.33.29,39,21.18,39.14,51.2.28,102.4.13,153.59.06,9.58,0,17.46-3.72,22.29-12.31,5.23-9.28,4.08-18.31-1.62-27.11Q570.69,520.49,528,454.11a20.48,20.48,0,0,1-3-10.38c-.24-31.47-.14-62.93-.14-94.4v-4.51ZM718.17,447q-31.6,0-63.2,0c-12.43,0-19.15,6.6-19.16,18.88q-.06,64.59,0,129.19c0,3.84-.07,7.82.84,11.51,3.1,12.47,12.86,19.55,26.66,19.59,24.26.07,48.53.15,72.79-.11a32.77,32.77,0,0,0,13.1-2.76c10.62-4.92,14.59-14.09,14.58-25.41,0-37.86,0-75.72-.08-113.59a14.86,14.86,0,0,1,4.82-11.69c6.38-6.05,12.57-12.31,18.64-18.68a6,6,0,0,0,1.5-4.77c-.28-1-2.62-1.62-4.14-2.1a10.85,10.85,0,0,0-3.18-.07Z" transform="translate(-396.8 -233.6)"/><path d="M396.8,328c1.78-7.65,4.93-14.46,11.29-19.53a30.25,30.25,0,0,1,35-1.61c10.64,7,15.77,20.8,12.18,32.84-3.93,13.16-15.33,21.88-28.62,21.87a30,30,0,0,1-28.29-20.7q-.78-2.44-1.58-4.87Zm30-9a12.73,12.73,0,0,0-12.89,12.49,13,13,0,0,0,12.88,13,12.73,12.73,0,0,0,12.59-12.78A12.54,12.54,0,0,0,426.77,319Z" transform="translate(-396.8 -233.6)"/><path d="M758.89,412.76c-16.42-.48-29.64-14.19-29.25-30.32.4-16.39,14.26-29.85,30.22-29.34,16.57.53,29.84,14.1,29.44,30.11C788.89,399.89,775.15,413.23,758.89,412.76Zm13.27-29.86a12.56,12.56,0,0,0-12.64-12.66,12.74,12.74,0,0,0-12.85,12.54,13,13,0,0,0,12.94,13A12.75,12.75,0,0,0,772.16,382.9Z" transform="translate(-396.8 -233.6)"/><path d="M729.79,293.45a25.57,25.57,0,0,1,25.38,25.47c0,14-11.85,25.81-25.76,25.59a25.53,25.53,0,1,1,.38-51.06Zm-.3,33.86a8.41,8.41,0,0,0,8.54-8.17,8.44,8.44,0,1,0-16.87-.23A8.44,8.44,0,0,0,729.49,327.31Z" transform="translate(-396.8 -233.6)"/><path d="M567.42,430.06h16.92V447c-5.17,0-10.17.07-15.16-.1-.61,0-1.66-1.31-1.68-2C567.35,440.06,567.42,435.29,567.42,430.06Z" transform="translate(-396.8 -233.6)"/><path d="M559.3,396h16.49v16.56H559.3Z" transform="translate(-396.8 -233.6)"/><path d="M584.81,480.69V464.22h16.54v16.47Z" transform="translate(-396.8 -233.6)"/><path d="M465.18,242.24a25.54,25.54,0,0,1-.23,51.08,25.54,25.54,0,1,1,.23-51.08ZM465,276.11a8.52,8.52,0,0,0,8.54-8.21,8.74,8.74,0,0,0-8.59-8.64,8.52,8.52,0,0,0-8.25,8.5A8.31,8.31,0,0,0,465,276.11Z" transform="translate(-396.8 -233.6)"/><path d="M456.58,446.74H439.66v-16.9c5.17,0,10.18-.07,15.17.1.61,0,1.65,1.31,1.67,2C456.65,436.75,456.58,441.52,456.58,446.74Z" transform="translate(-396.8 -233.6)"/><path d="M430.76,404H414.09V387.48h16.67Z" transform="translate(-396.8 -233.6)"/><path d="M519.71,481.71c-21.7,36.89-43.07,73.23-64.77,110.11h44v16.84a18.89,18.89,0,0,1-2.55.33q-27.39,0-54.76,0c-6.16,0-9.95-2.8-10-7.91,0-2.46,1.18-5.16,2.47-7.37Q467.3,537,500.67,480.47c1.41-2.39,2.85-4.75,4.42-7.37Z" transform="translate(-396.8 -233.6)"/><path d="M567.77,583.66h16.79c0,5.16.08,10.16-.11,15.15,0,.63-1.55,1.66-2.41,1.7-4.64.16-9.28.08-14.27.08Z" transform="translate(-396.8 -233.6)"/><path d="M542,566.19V549.72h16.79v16.47Z" transform="translate(-396.8 -233.6)"/><path d="M729.43,481.21h16.93c.08,1.46.24,2.85.24,4.25q0,56.15,0,112.29c0,8.47-2.78,11.24-11.23,11.25-10.25,0-20.51,0-31.06,0v-16.8h25.12Z" transform="translate(-396.8 -233.6)"/><path d="M653,481.21h25.14V497.9H653Z" transform="translate(-396.8 -233.6)"/><path d="M678.07,566.33h-25V549.61h25Z" transform="translate(-396.8 -233.6)"/><path d="M669.59,583.71v16.64H653V583.71Z" transform="translate(-396.8 -233.6)"/><path d="M653,515.32h16.45V532H653Z" transform="translate(-396.8 -233.6)"/></svg>