<svg id="Layer_1" data-name="Layer 1" xmlns="http://www.w3.org/2000/svg" viewBox="0 0 490.98 234.12"><defs><style>.cls-1{fill:#f42439;}</style></defs><title>logo1</title><path d="M39.7,147.24a8,8,0,0,1-3.82,7.49C27,160.65,17.64,166,9.41,172.89a1.94,1.94,0,0,1-2.26.5c-.9-.42-.77-1.21-.78-1.95-.3-20.46-.55-40.93-.93-61.39-.19-9.89-.71-19.77-.94-29.66s-.25-20.08-.43-30.12a6.93,6.93,0,0,1,2.08-4.65c6.49-7.73,13.05-15.41,19.57-23.11a7.25,7.25,0,0,1,6.15-2.67c15.25.44,30.51.74,45.77,1.14,10,.26,20.09.61,30.14.87a6.91,6.91,0,0,1,5.59,2.39c6.12,7.28,11.88,14.92,18.57,21.63,5.12,5.14,6.27,10.84,6.1,17.52-.22,8.45-.09,16.92-.07,25.38,0,11,.1,21.91.13,32.87v25.14c0,.9,0,1.81.07,2.71.09,2.34-.61,4.33-3.61,4.87-3.82.68-7.69.34-11.53.32a155.61,155.61,0,0,1-17-.61,2.88,2.88,0,0,1-2.92-2.56,34.52,34.52,0,0,1-.5-7.46c.07-5.59.34-11.18.48-16.77.06-2.26,0-4.53,0-6.8,0-3-.45-3.43-3.42-3.46q-9.42-.12-18.83-.15H70.63v-.1c-9.44-.3-18.88-.55-28.32-1-2.13-.08-3.07.48-3,2.71m1.56-66.66c-2.75,0-3.28.58-3.13,3.35.08,1.43.46,2.8.46,4.26q0,11,.31,22c.08,3.44.24,3.54,3.69,3.62,8.61.22,17.23.38,25.85.58,10.49.24,21,.52,31.47.76,3.22.08,3.21,0,3.18-3.29q-.11-13.26-.16-26.53c0-3.06-.21-3.27-3.39-3.35" transform="translate(0 -0.02)"/><path class="cls-1" d="M318.5,224.34c.21-7.11,2.81-13.58,5.56-20,5.9-13.71,13.39-26.57,21.52-39.06,5.39-8.3,10.68-16.66,16.08-25,4.37-6.7,8.77-13.39,13.27-20,4-5.86,4.13-5.87,0-11.56-6.05-8.37-12-16.82-18.4-24.93A420,420,0,0,1,331,48.44a83.51,83.51,0,0,1-8.45-16.24,17.75,17.75,0,0,1-1.22-7.56c.52-6,5.23-9.1,11-7.17a23.31,23.31,0,0,1,11.18,8.59A149.21,149.21,0,0,1,355,43.86c6,11,14.61,20,22.28,29.67,4.9,6.2,10,12.31,13.46,19.52.73,1.51,1.5,1.34,2.53.23,4.37-4.72,8.25-9.84,12.16-14.93,8.88-11.57,17.8-23.11,26.9-34.51,8.81-11,17.89-21.86,27.72-32a70.68,70.68,0,0,1,10.26-8.9c6.66-4.69,13-3.76,17.65,3,5,7.16,3.62,13.49-2.87,19-4.22,3.61-9,6.53-13.61,9.7-5,3.42-8.8,8-12.91,12.36-8.68,9.15-16.44,19.09-24.21,29-5.36,6.83-10.25,14-15.12,21.2a134.08,134.08,0,0,0-8.85,15.27c-1.56,3.12-.88,5.46,1.12,8.07,6.27,8.2,14,15,20.7,22.83a58.87,58.87,0,0,1,10,15.58c2.39,5.73,2.2,11.49,1.64,17.38a23.55,23.55,0,0,1-1.2,5.75,3.51,3.51,0,0,1-2.93,2.7,77.11,77.11,0,0,1-8.26,1.44c-2.77.19-3.25-.36-4-3-2.65-9.33-6.12-18.28-11.53-26.47A106.83,106.83,0,0,0,399.38,137a25.45,25.45,0,0,0-3.86-2.74,1.27,1.27,0,0,0-1.79.24,1.14,1.14,0,0,0-.21.41c-3.36,7.23-9.14,12.74-13.7,19.12C376.27,159,373,164.1,369.4,169c-2.69,3.73-5,7.71-7.68,11.45A92.09,92.09,0,0,0,355,191.9a174.32,174.32,0,0,0-9.63,21.26,115.52,115.52,0,0,0-4.23,15.73c-.8,3.9-2.26,5.16-6.18,5.23-2.57.06-5.15,0-7.71-.14C320.87,233.51,318.34,230.66,318.5,224.34Z" transform="translate(0 -0.02)"/><path d="M193.76,58.14c0,10.11-.12,20.22-.13,30.32,0,10.89-.07,21.77,0,32.65,0,4,.73,4.69,4.76,4.77q20,.41,39.94.76v0l41.06.71a10.36,10.36,0,0,1,1.12.11c.88.12,2-.13,2.43.86s-.44,1.7-1,2.34q-10,11.43-20,22.81a8.84,8.84,0,0,1-7.2,3.14c-13-.26-26-.4-39-.59l-43.43-.67c-3-.05-6-.26-9.06-.14-3.28.13-4.84-1.49-4.83-4.86,0-8.54.23-17.07.32-25.6.07-6.42.08-12.85.1-19.27q0-18.48.07-36.95.06-15.75.15-31.52c0-3.32.09-6.65,0-10a4.33,4.33,0,0,1,2.2-3.73q11.79-8.23,23.65-16.39c2-1.37,4-2.71,6-4a2.45,2.45,0,0,1,3-.23,2.71,2.71,0,0,1,1.21,2.92" transform="translate(0 -0.02)"/><path d="M311.54,83.77c4.22.1,5.13,1.46,3.25,5.35-2.75,5.72-5.67,11.36-8.53,17-.85,1.68-1.75,3.34-2.64,5a5.3,5.3,0,0,1-5.21,3l-42.66-.78c-6.65-.12-13.3-.18-20-.3-6-.1-12.08-.21-18.11-.4-3-.1-3.79-1.41-2.53-4.14q5.53-12,11.2-24A4.41,4.41,0,0,1,230.75,82c6.81.12,13.62.28,20.42.36" transform="translate(0 -0.02)"/><path class="cls-1" d="M240.25,203.13q1-5.81,1.94-11.6c.5-3,.75-3.21,3.82-3.2,2.79,0,5.59.18,8.39.09,2.15-.07,3,.75,3,2.9-.17,6.05-.15,12.1-.38,18.14s0,12.24-.64,18.35c-.22,1.88-.92,2.47-2.67,2.46-8-.07-6.82.55-7-6.72-.08-4.21,0-8.41-.36-12.66q-1.1,5.87-2.18,11.72c-.24,1.34-.46,2.69-.73,4a4.43,4.43,0,0,1-6.49,3.31c-1.09-.48-1.18-1.47-1.33-2.45-.84-5.61-1.68-11.21-2.54-16.87-.88,5.33-.61,10.67-.83,16-.12,3-.64,3.54-3.68,3.47-.68,0-1.36-.1-2-.14-4.27-.24-4.35-.24-4.3-4.41.1-10,.3-20,.46-29.93v-5.22a2.1,2.1,0,0,1,1.77-2.39,1.94,1.94,0,0,1,.59,0c3.47,0,7,.07,10.43.1,1.39,0,2,.73,2.22,2,.64,4.33,1.33,8.65,2,13Z" transform="translate(0 -0.02)"/><path class="cls-1" d="M142.64,208.05V189.91c0-2.14.75-3.17,3.06-3.16a139.31,139.31,0,0,1,14.73.47c5,.53,8,4.67,7.73,10.75-.15,3.11.07,6.42-2.79,8.73-.54.44-.37.92.16,1.51a9.37,9.37,0,0,1,2.66,6.95c-.16,3.77-.16,7.56-.1,11.34,0,2.17-1,3-3,3s-4.09-.13-6.13-.09c-1.7,0-2.15-.68-2.09-2.35.15-4.15.08-8.31.09-12.47a10.32,10.32,0,0,0-.06-1.36c-.1-1-.07-2.42-1.49-2.37-1.61.06-1.08,1.58-1.1,2.5q-.15,6.57-.1,13.16c0,2-.87,2.92-2.87,2.84s-4.23-.15-6.35-.14c-1.75,0-2.4-.83-2.38-2.52V208.09Zm14.59-8.89a10,10,0,0,0-.37-3.52,1.5,1.5,0,0,0-1.6-1c-.85.07-.84.73-.85,1.33v5.85c0,.61.22,1.21,1,1.29a1.44,1.44,0,0,0,1.56-1c.41-1,.11-2,.26-3Z" transform="translate(0 -0.02)"/><path class="cls-1" d="M138.53,207.58c0,3.63.15,7.26,0,10.88-.33,6.49-4,10.45-10.36,11.16-5.65.62-10.93-.09-14.32-5.55-1.67-2.67-1.55-5.67-1.62-8.58-.14-5.22-.11-10.44,0-15.66.1-4,.46-8,3.77-11,5.38-4.92,16.59-4,20.82,1.89a9.89,9.89,0,0,1,1.83,5.73c.07,3.71,0,7.41,0,11.12Zm-11.75-.12h0V196.12c0-1.09.21-2.59-1.45-2.55-1.4,0-1.39,1.41-1.39,2.46q0,11.57.09,23.13c0,1-.08,2.39,1.45,2.33s1.24-1.49,1.25-2.47C126.81,215.17,126.78,211.31,126.78,207.46Z" transform="translate(0 -0.02)"/><path class="cls-1" d="M12.21,185.06c1.81,0,3.62.06,5.43,0,2-.08,3,.86,3.33,2.84,1.37,8,2.81,16,4.24,24.07.71,3.94,1.53,7.86,2.16,11.82.56,3.46.08,3.94-3.4,4-1.67,0-3.33-.1-5,0-2.16.13-3-.9-3.07-2.94a24.83,24.83,0,0,0-.37-2.69,2,2,0,0,0-1.94-2.06,2.33,2.33,0,0,0-.53.06c-1.48.1-1.59,1.13-1.58,2.25V223c-.15,4-.52,4.39-4.51,4.33-1.51,0-3-.1-4.54-.06-1.74,0-2.55-.75-2.42-2.45.3-3.84.58-7.68,1-11.51.71-7.36,1.57-14.71,2.19-22.08.51-6.21.41-6.23,6.56-6.29H12.2Zm.93,14.55a46.84,46.84,0,0,0-1.66,11.16c0,1.13.66,1.36,1.62,1.36s1.6-.28,1.49-1.23c-.43-3.78-1-7.54-1.45-11.29Z" transform="translate(0 -0.02)"/><path class="cls-1" d="M192,229.61h-.23c-5.76-.09-5.45.49-6-5.48-.11-1.11-.44-1.9-1.66-2a1.88,1.88,0,0,0-2.2,1.74c-.11.52-.17,1.05-.25,1.57-.52,3.87-.89,4.19-4.9,4.17-1.21,0-2.42-.09-3.63-.08-3.34,0-3.74-.29-3.27-3.64,1.2-8.69,2.52-17.36,3.78-26,.48-3.3.93-6.59,1.34-9.89a2.63,2.63,0,0,1,2.63-2.65h.13c4.25-.32,8.47.2,12.71.28,1.4,0,1.63,1.11,1.8,2.2l2.88,19.29,2.43,16.14c.1.67.16,1.35.24,2,.2,1.75-.63,2.51-2.36,2.45H192Zm-8.2-27.84a72.78,72.78,0,0,0-1.51,10.89c0,.89.12,1.45,1.18,1.48s1.54-.42,1.51-1.46a13.14,13.14,0,0,0-.1-2C184.57,207.35,184.49,204.06,183.8,201.77Z" transform="translate(0 -0.02)"/><path class="cls-1" d="M97.42,194.9c.49-2,1.09-4.06,1.45-6.12.33-1.89,1.41-2.51,3.15-2.43s3.17.14,4.76.16,2.22.85,1.84,2.49c-.57,2.5-.8,5.1-1.58,7.53-1.87,5.88-1.21,11.56.6,17.32,1.26,4,2.11,8.18,3.07,12.3.49,2.13,0,2.72-2.28,2.72-1.82,0-3.64-.2-5.44-.11-2.23.11-3.07-1.12-3.49-3-.47-2.13-1-4.24-1.54-6.36a12,12,0,0,0-.75-1.58,42.11,42.11,0,0,0-1.53,7.55c-.54,3.1-.79,3.35-4,3.33-1.89,0-3.78-.06-5.67,0-1.47,0-2-.61-1.77-2.12,1-6,1.77-12,3-17.85,1-4.82-1.12-9.06-1.81-13.56-.32-2.16-.83-4.3-1.31-6.44-.38-1.72.38-2.33,2-2.4a70,70,0,0,1,7.24.16c1.12.07,1.54.64,1.78,1.66.54,2.27,1.19,4.51,1.8,6.76Z" transform="translate(0 -0.02)"/><path class="cls-1" d="M201.4,229.64c-1.55,0-2.25-.7-2.49-2.29-.5-3.41.88-6.4,1.86-9.47,2-6.33,4.19-12.61,6.24-18.92.71-2.19.35-2.69-2-2.77-4.52-.17-4.63.32-4.57-5,0-3.35.16-3.5,3.42-3.5q6.46,0,12.93.08c3.12,0,3.46.41,3.43,3.61a25.24,25.24,0,0,1-1.4,8.66c-2.25,6.08-4.15,12.28-6.13,18.46-.75,2.34-.45,2.67,1.94,2.7,5.32.08,5.32.08,4.92,5.44-.22,2.94-.45,3.16-3.4,3.16" transform="translate(0 -0.02)"/><path class="cls-1" d="M287.87,200.84c.67-2.85,1.33-5.7,2-8.57S291,189,294,189c1.21,0,2.42,0,3.63.05,2.59.09,3.13.8,2.35,3.24-1.48,4.6-2.83,9.24-4.58,13.73a43.68,43.68,0,0,0-3.31,19.23c0,.45,0,.91,0,1.36-.16,4-.37,4.1-4.38,4-7-.11-6.23.32-5.8-6,.58-8.72-2.3-16.64-4.43-24.78-.75-2.84-1.39-5.71-2.11-8.57-.49-2,.42-2.66,2.25-2.58,1.28.06,2.57.13,3.85.15,3.36.06,3.77.44,4.35,3.84.45,2.73,1,5.46,1.45,8.19Z" transform="translate(0 -0.02)"/><path class="cls-1" d="M38.55,227.85c-2,0-3.94-.08-5.9,0s-3-.59-3.06-2.8c-.14-5.21-.41-10.41-.43-15.63,0-6.27-.24-12.54-.43-18.81-.14-4.85.06-5.29,4.85-5.21,7.34.13,6.63-.18,6.75,6.48.15,8.16.35,16.32.45,24.48,0,2.12.65,3.26,3,3.12,1.3-.07,3-.25,3.6,1.26a9.41,9.41,0,0,1,.1,6.22c-.32.93-1.34.92-2.16.93H38.53Z" transform="translate(0 -0.02)"/><path class="cls-1" d="M261.55,193.87c.09-4.49.25-4.55,4.64-4.55h3.63c3,.06,3.31.37,3.22,3.5q-.44,15.65-.84,31.28c-.05,1.59,0,3.18-.16,4.76a2.23,2.23,0,0,1-2,2.42,2.07,2.07,0,0,1-.61,0c-2-.11-3.93-.09-5.89-.08-1.8,0-2.56-.75-2.53-2.61" transform="translate(0 -0.02)"/><path class="cls-1" d="M66.07,214.67H60.86a1.94,1.94,0,0,1-2.24-2.17,3.59,3.59,0,0,0,0-.46c-.37-4.49-.13-4.8,4.32-4.91,2.65-.07,5.3,0,7.94,0,1.74,0,2.67.69,2.52,2.6-.44,5.44.94,5-5,5.09H66.08Z" transform="translate(0 -0.02)"/></svg>