<svg id="Layer_1" data-name="Layer 1" xmlns="http://www.w3.org/2000/svg" viewBox="0 0 409.62 409.5"><defs><style>.cls-1{fill:#f42439;}</style></defs><title>onatili-kizil</title><path class="cls-1" d="M0,399.1c14.72-19.25,29.38-38.54,44.23-57.7,1.36-1.74,3.77-3.55,5.83-3.73,25-2.2,48.1-11,71.5-19.19,27.34-9.56,51.37-2.93,71.65,17.61.37.38.75.76,1.14,1.12a2.06,2.06,0,0,0,.54.2c.09-.31.34-.69.23-.89-8.23-15.94-19.54-28.63-37.34-33.89-13-3.85-25.61-.81-37.8,4.06-17,6.78-34.19,12.68-52.39,15.19-4.36.6-8.71,1.25-13.08,1.72-5,.55-9-2.41-9.59-7-.57-4.24,2.48-8,7.37-8.82,9-1.58,18.28-2.41,27.1-4.8,12-3.26,23.82-7.53,35.61-11.65,11.26-3.94,22.61-7.21,34.71-6.28,19,1.47,34.07,10.49,46.44,24.52,3,3.38,5.63,7.05,8.64,10.84,2.9-3.66,5.62-7.39,8.65-10.84,12.77-14.48,28.39-23.59,48-24.62,11.38-.59,22.1,2.56,32.74,6.22,12.81,4.42,25.72,8.58,38.63,12.72,5.2,1.66,8.07,5.59,6.88,10-1.24,4.59-5.54,7.12-10.74,5.49-14.59-4.59-29.17-9.19-43.56-14.35-29.39-10.54-50.9.33-66.72,23.87a29.78,29.78,0,0,0-4,8.47c3.25-2.87,6.37-5.91,9.77-8.59,18.73-14.81,39.64-18,62.15-10.9,11.28,3.56,22.15,8.48,33.52,11.67a305,305,0,0,0,34,7c5.73.93,10.06,2.72,13.68,7.58,12.61,16.89,25.61,33.52,38.4,50.17,5.13,6.68,4.58,10.46-2.19,15.15H0Zm196.26-5.6c2-15.58,1.21-30-10.37-41.66-2.07-2.07-3.87-4.42-6-6.44-11.48-10.92-24.87-17.11-41-14.44a112.54,112.54,0,0,0-22.49,6.32c-18.68,7.33-37.77,12.81-57.7,15.4a8.51,8.51,0,0,0-5.13,2.89c-9,11.4-17.78,23-26.62,34.49-.69.9-1.27,1.89-2,3a9.12,9.12,0,0,0,1.46.26c23.07-.9,46.08-2.56,68.3-9.28,12.46-3.77,24.57-8.68,36.91-12.87,9-3,18-3.72,26.78.83,7.79,4,12.86,10.54,16.59,18.32.62,1.29,2.16,2.94,3.36,3,5.9.38,11.89.18,17.91.18Zm188.86.1c-1.24-1.79-1.92-2.88-2.7-3.89-6.89-9-14.2-17.69-20.56-27-4.72-7-10.14-10.58-18.82-11.5-18.23-1.93-35.45-8.17-52.4-15-10.21-4.12-20.78-6.95-31.94-5.42-18.21,2.49-29.92,14.08-40.29,28.18-8,10.9-4.85,22.75-5.64,34.6,5.69,0,10.76-.26,15.8.09,3.6.25,5.27-1,6.82-4.28,5.61-11.86,14.51-20.27,28.18-20.23,7.23,0,14.82,2.08,21.61,4.8,22.64,9.09,45.86,15.55,70.2,17.64C365,392.35,374.66,392.88,385.12,393.6Zm-265.57-1.2.14.82h38.16c-3.68-6.59-9.22-9.73-16-8-7.55,1.9-14.87,4.74-22.3,7.18Zm170.24.93.32-.91c-7.52-2.46-14.94-5.34-22.6-7.25-6.72-1.68-12.75,1.88-15.6,8.16Z" transform="translate(0 0)"/><path class="cls-1" d="M205.4,123.9c-1.25-7.62-2.36-14.59-3.55-21.54-.62-3.65-.45-7,1.62-10.35,15.95-25.53,34.67-48.58,59.32-66.3,17.51-12.58,36.49-21.89,58-25.42,5.63-.92,9.63.29,10.86,4.23a15.52,15.52,0,0,1-.1,8.09c-8.16,30.87-16.52,61.7-24.77,92.55-2.82,10.54-5.62,21.08-8.16,31.69-1.06,4.41-2.83,8-7.71,10.14,4.39,4.26,3,9,1.8,13.82-3.71,15.38-6.85,30.94-13.48,45.46-6.43,14.07-14.93,26.44-28.6,34.51a57,57,0,0,1-27.69,8.07c-4.09.11-5.2,1.63-5.54,5.58-1.25,14.2-3,28.35-4.51,42.52-.64,5.94-3.86,9.16-8.73,8.76s-7.8-4.51-7.16-10.5c1.67-15.76,3.36-31.52,5-47.06-4.83-3-9.9-5.39-14.17-8.83-10.65-8.57-15.22-20.62-17.17-33.62-.67-4.51,2.12-7.48,6.32-8.88,0-.37.09-.72,0-.79-9.66-6.63-7.45-16.23-5.28-25,3.43-13.77,8.05-27.25,12.25-40.82,1.36-4.37,4.51-6.39,9.08-6.31C197,124,201,123.9,205.4,123.9Zm101.34-81c-45.62,55.73-74.19,119-86.28,190.15,14-.48,25.12-5.55,33.52-15.84,13.28-16.25,17.57-36,22.09-56.12-3.58-.24-6.76-.34-9.91-.69-4.94-.55-7.74-2.74-8.37-6.64-.68-4.27,1.52-7.07,5.08-9.07,5.69-3.21,11.46-6.29,16.95-9.8a10.09,10.09,0,0,0,4-5.3c5.78-21.33,11.3-42.72,16.91-64.09q3-11.36,6-22.65Zm-6-19.54c-10.39,3.57-19.61,9-28.32,15.3-22,16-39.18,36.33-53.51,59.22a7,7,0,0,0-.69,4.43c1.33,9.09,3,18.12,4.22,27.23.9,6.84-2.37,10.31-9.22,10.4-4.53.06-9.07-.12-13.59.11a4.24,4.24,0,0,0-3.13,2,146.17,146.17,0,0,0-9.89,37.3,7.46,7.46,0,0,0,1.76,5.18c4.47,4.94,9.31,9.54,13.89,14.37,2.36,2.48,3.32,5.45,1.87,8.81a8,8,0,0,1-7.9,5h-7.14c2.41,8.78,8.45,15.79,15.49,18q20-116.65,96.13-207.45Z" transform="translate(0 0)"/><path class="cls-1" d="M348.71,315.7a7.66,7.66,0,0,1,7.46-7.86h.29a8,8,0,0,1,8.25,7.75v.14a8.19,8.19,0,0,1-7.85,8,8.09,8.09,0,0,1-8.15-8Z" transform="translate(0 0)"/></svg>