<svg id="Layer_1" data-name="Layer 1" xmlns="http://www.w3.org/2000/svg" viewBox="0 0 409.56 409.61"><defs><style>.cls-1{fill:#f42439;}</style></defs><title>rustil-qizil</title><path class="cls-1" d="M192.76,0h24a20.22,20.22,0,0,0,3.09.66c32,2.26,62,11.42,89.35,28.18,53.06,32.52,85.71,79.4,97.17,140.72,1.44,7.68,2.14,15.49,3.19,23.24v21.6c-.53,4.87-1,9.73-1.6,14.6a200.12,200.12,0,0,1-31.44,87,203.26,203.26,0,0,1-76.69,70.06,195.38,195.38,0,0,1-65.69,21.25c-6.57.89-13.18,1.54-19.78,2.3h-21.6c-1.3-.24-2.58-.53-3.89-.72-9-1.29-18-2-26.83-3.93C113,394.3,73,369,42.44,329.3,9.58,286.53-4.1,237.85,1.06,184.3,5.23,141,22,102.8,50.77,70.14c31.75-36,71.34-58.48,118.71-66.91C177.18,1.82,185,1.05,192.76,0Zm205.3,229.34C408.6,157.83,374.67,74.71,297.06,33,220.51-8.21,126.58,6.2,66.33,67.33,4.14,130.42-3,219,26.08,282.51c6.29-2,9.15,4.25,14.08,6.06,1.82-1.31,3.51-2.93,5.52-3.87,2.26-1.05,5-2.48,7.17-2,3.18.76,2.93,4.28,2.93,7.1v17.63H66.45c0-6.21-.24-12.2.12-18.15.14-2.28,1.07-5.53,2.69-6.41s4.65.43,6.76,1.42,4.11,2.85,6.25,4.4c1.44-1,2.74-1.9,4-2.81a43.22,43.22,0,0,1,3.92-2.77c3.82-2.27,7.27-.67,7.92,3.69a34.8,34.8,0,0,1,.11,4.79v15.76h10.64c0-6.31-.25-12.32.13-18.28.14-2.25,1.2-5.3,2.86-6.32,1.38-.83,4.43.45,6.42,1.42,2.33,1.15,4.33,3,6.5,4.56,2.18-1.58,4-3.28,6.09-4.3s5.31-2.53,6.72-1.67c1.73,1,2.77,4.29,2.93,6.66.4,5.93.13,11.9.13,18h10.45c.08-1.29.21-2.33.21-3.37v-31.6c0-5.31,1.64-6.84,7-6.88h8.11V212.71c0-5,1.31-6.33,6.24-6.89.64-.07,1.26-.25,2.18-.44V140.53c0-5.35,1.17-6.63,6.55-6.79,2.21-.07,3-.86,3.32-2.93,1.78-10,3.71-19.9,5.59-29.84q4.82-25.52,9.62-51c.51-2.72,1.68-4.94,4.73-5.06,3.27-.14,4.67,2.05,5.17,5,.07.39.22.77.3,1.16q4.11,22,8.23,44c2.41,12.8,4.86,25.59,7.27,38.28,9.44,1.27,9.44,1.27,9.44,10.7v61.47c7.94,1.18,8.2,1.47,8.2,9.12v51h6c7.9,0,8.84,1,8.84,9v32.82h10.52c.06-1.41.16-2.59.16-3.76,0-5.07-.23-10.15.13-15.19.15-2,1.16-4.85,2.66-5.65s4.1.4,6.16.95a18.62,18.62,0,0,1,3.44,2V254.45c0-5.28,1.42-6.67,6.63-6.7,10.53,0,21.06-.08,31.59,0,2.38,0,3.9-.57,5.21-2.68,7.13-11.51,17.43-18.84,30.39-22.51,2.55-.72,6.18-.38,7.48-2,1.42-1.78.72-5.26,1-8,.25-3,1.67-5.29,4.88-5.23s4.56,2.32,4.71,5.38c.12,2.63-.63,6,.74,7.66s5,1.18,7.41,2.1C386.93,224.68,392.51,227.08,398.06,229.34Zm-139.66,88v74.55c23.51-2.52,82.87-39.82,90.56-57.12-3.51,0-6.85.25-10.14-.07a4.24,4.24,0,0,1-4-5,4.29,4.29,0,0,1,4.39-4.2h.12c2.66-.11,5.33,0,8-.11,3.25-.16,6.06.4,7.36,4.24,8.34-10.4,15.94-20.63,21.12-32.9-4.16,4-8.12,3.37-12.43-.63v14.69c-.06,4.93-1.54,6.49-6.42,6.57-5.47.09-10.94.06-16.4,0-5.67,0-7.06-1.46-7.09-7.1v-14.6c-4.5,5-8.34,4.29-12.56.43v15c0,4.64-1.57,6.19-6.29,6.28-5.33.09-10.67,0-16,0-6.25,0-7.56-1.32-7.58-7.44V297l-.67-.75c-3.79,4.62-7.64,3.47-11.86-.15v14.5c0,5.15-1.49,6.64-6.66,6.72-4.42.05-8.79,0-13.45,0ZM76.07,295.82c0,6.08.05,10.74,0,15.4-.06,4.39-1.6,6-6,6.11-5.33.12-10.66,0-16,0-6.66,0-7.85-1.23-7.87-8V295.61c-4.56,4.95-8.38,4.35-12.51,1.14,10.28,21,24.47,38.52,41.54,53.73a192.29,192.29,0,0,0,75.82,41.8v-75c-4.72,0-9.11.07-13.5,0-4.9-.09-6.4-1.64-6.44-6.53v-15.3c-4.38,5.29-8.21,4.26-12.54.74v14.68c0,4.6-1.55,6.31-6.17,6.4q-8.79.17-17.59,0c-4.6-.09-6-1.71-6.1-6.46V295.86C84.28,300.25,80.45,300.43,76.07,295.82Zm85.22-20.38v60.17h87V275.54h-11.2c0,5,.21,9.64-.07,14.28-.25,4.22-4.43,6.42-7.3,3.85a8.19,8.19,0,0,1-2.11-5.24c-.3-4.3-.09-8.64-.09-12.94h-18v13c0,3.31-1,5.87-4.76,6.07-3.07.16-4.78-2-4.84-6,0-4.35,0-8.71,0-13.36h-15.2c-.77,0-1.54.14-2.75.26V288.3c0,3.18-.75,6-4.63,6.24-3.16.22-4.91-2-5-6.26s0-8.45,0-12.88Zm165.9,13.32,3.93-2.82c1.18-.86,2.33-1.79,3.56-2.57,4.14-2.62,7.79-.94,8.33,3.84a35.87,35.87,0,0,1,.06,4.4v15.8h10.69c0-6.69-.15-13.08,0-19.46.17-5.58,4.06-7.43,8.7-4.31,2.42,1.62,4.75,3.37,7,5,4.91-2.26,7.93-8,14.29-6.1l3.4-8.5h-80.9c-5.81,0-8-1.38-8-4.86s2.26-4.74,8.14-4.74h78.77c6.23,0,6.23,0,7-6.71H291.09v25.76c7.42-2.54,9.53-1,9.54,6.77v17.27H311c.1-1.13.24-2,.25-2.95,0-5.19-.24-10.41.13-15.58.16-2.16,1.13-5.39,2.63-6,1.77-.75,4.68.4,6.79,1.38s4.13,2.82,6.36,4.38Zm-150.82-73v49.5h57.11V215.8Zm-15.17,145a12.42,12.42,0,0,0,1.71.38c12.63.87,25,.66,35.59-7.87.71-.58,1.65-.87,2.42-1.39a6.9,6.9,0,0,1,8.2-.09c2.94,1.82,6.28,3.06,9,5.12,9.36,7,19.91,3.33,30.07,4.3V345.84h-87Zm58.68,38.71c0-10.07.06-19.37-.09-28.68a4.33,4.33,0,0,0-1.92-3c-12.05-7.74-12.07-7.71-24.5-.69a6.45,6.45,0,0,0-1.72,1,4.11,4.11,0,0,0-1.24,2.23c-.08,9.57,0,19.13,0,29.12Zm174.9-152c2.36-5.78,2.46-5.92-2.27-9.18C379.71,229.46,366,228,351.64,234a38.76,38.76,0,0,0-16.88,13.58Zm-178.9-114c-3.56-18.89-7-37.31-10.52-55.73h-.81c-3.49,18.48-7,37-10.52,55.73Zm9.33,72.14V191.36H184.76v14.27Zm-44.71,193V371.2H161.22v24Zm49.26-27.49v27.4l18.55-3.4v-24Zm-30.66-190h11.81V143.57H199.1Zm26.1.11V143.32l-4.24.21v37.72ZM184.76,143.3v37.9H189V143.54Z" transform="translate(0)"/><path class="cls-1" d="M199.76,22.49c.4-3.73,1.14-7.13,5.29-7.07,3.9.07,4.8,3.18,4.8,6.77,3.42-.57,6.88-1.17,8.25,2.72s-1.77,5.59-4.82,7.17c1.73,3.06,3.17,6.14-.33,8.56s-5.63-.31-8-2.51c-2.37,2.15-4.71,5-8.2,2.34-3.14-2.43-2-5.37-.09-8.31-2.91-1.73-6.54-3.15-4.76-7.44C193.34,21.32,196.22,21.2,199.76,22.49Z" transform="translate(0)"/><path class="cls-1" d="M300.32,347.94c1.85,0,4-.58,5.49.14,1.76.84,3.87,2.67,4.12,4.33.21,1.36-1.92,4.25-3.31,4.46a43.54,43.54,0,0,1-12.59,0c-1.38-.2-3.51-3.08-3.31-4.44.25-1.65,2.36-3.5,4.1-4.33C296.33,347.37,298.46,347.94,300.32,347.94Z" transform="translate(0)"/><path class="cls-1" d="M278.76,335.08c1.72,0,3.45-.1,5.17,0,2.63.18,4.58,1.86,4.21,4.28-.28,1.79-2.11,4.48-3.58,4.72a37.77,37.77,0,0,1-12.19,0c-1.44-.24-3.34-3.08-3.36-4.76,0-1.38,2.2-3.35,3.86-4s3.91-.15,5.89-.15Z" transform="translate(0)"/><path class="cls-1" d="M97.37,352.8c-1.72,0-3.72.55-5.09-.14-1.74-.89-3.73-2.57-4.23-4.3-.76-2.66,1.22-4.69,3.91-4.91a44,44,0,0,1,11.46.15c1.56.29,3.47,2.81,3.81,4.58.5,2.65-1.51,4.38-4.29,4.6-1.85.15-3.71,0-5.57,0Z" transform="translate(0)"/><path class="cls-1" d="M131,335.64c-2-.1-4.21.32-5.87-.46s-3.62-2.75-3.67-4.25,1.93-4.26,3.3-4.46a44.26,44.26,0,0,1,12.59,0c1.35.19,3.28,3,3.21,4.49s-2.06,3.45-3.68,4.21S133,335.54,131,335.64Z" transform="translate(0)"/><path class="cls-1" d="M109.2,354.76c2,.1,4.22-.33,5.88.46s3.67,2.72,3.73,4.23-1.94,4.26-3.32,4.46a44.33,44.33,0,0,1-12.6,0c-1.38-.2-3.37-3-3.31-4.46s2.1-3.46,3.74-4.23S107.21,354.86,109.2,354.76Z" transform="translate(0)"/><path class="cls-1" d="M165.5,315.47c0-1.59-.1-3.19,0-4.77.22-2.79,1.8-4.38,4.61-4.45a4.36,4.36,0,0,1,4.76,3.92c0,.13,0,.27,0,.4a56.16,56.16,0,0,1,0,9.53c-.24,2.86-2.09,4.7-5,4.5-2.7-.18-4.29-1.93-4.38-4.75v-4.38Z" transform="translate(0)"/><path class="cls-1" d="M183.09,315.07c0-1.46-.51-3.2.11-4.31,1-1.73,2.46-3.8,4.17-4.34,2.62-.83,4.71,1,5,3.78a53.6,53.6,0,0,1,0,10.29,4.3,4.3,0,0,1-4.45,4.16,3.31,3.31,0,0,1-.55,0c-2.7-.22-4.28-1.94-4.35-4.76-.05-1.59,0-3.18,0-4.77Z" transform="translate(0)"/><path class="cls-1" d="M200.69,315.5c0-1.72-.54-3.7.13-5.1a8,8,0,0,1,4.08-4,3.71,3.71,0,0,1,4.7,2.31,3.81,3.81,0,0,1,.19,1.06,38.25,38.25,0,0,1-.09,11c-.29,1.53-3.1,3.66-4.65,3.57s-3.29-2.4-4.29-4.14c-.67-1.23-.13-3.11-.13-4.7Z" transform="translate(0)"/><path class="cls-1" d="M227.66,315.38a34.37,34.37,0,0,1,0,4.76c-.41,2.85-2.13,4.69-5.1,4.45-2.7-.22-4.26-2-4.31-4.8s-.08-5.83,0-8.74c.07-2.75,1.43-4.56,4.28-4.78,3.07-.25,4.72,1.5,5.14,4.36A31.38,31.38,0,0,1,227.66,315.38Z" transform="translate(0)"/><path class="cls-1" d="M235.82,315.3c0-1.59-.1-3.18,0-4.76a4.25,4.25,0,0,1,4.21-4.29h.12c2.61-.15,4.56,1.12,4.79,3.72a38.23,38.23,0,0,1-.1,10.63c-.32,1.6-2.79,3.61-4.53,3.89-2.56.4-4.36-1.59-4.52-4.43-.09-1.58,0-3.17,0-4.76Z" transform="translate(0)"/><path class="cls-1" d="M202.76,264a23.45,23.45,0,0,1-21.29-25.43,2,2,0,0,1,0-.23A23.74,23.74,0,0,1,207.16,217c12.79,1.22,22.63,13.09,21.4,25.81A23.74,23.74,0,0,1,202.76,264Zm1-9.55A14.1,14.1,0,0,0,219,241.91a14.39,14.39,0,0,0-12.58-15.35,14.11,14.11,0,0,0-15.35,12.75c0,.05,0,.09,0,.14a13.84,13.84,0,0,0,12.52,15Z" transform="translate(0)"/><path class="cls-1" d="M209.94,235.64c1.32.13,2.53-.12,3.09.37,1.55,1.34,3.74,2.9,3.93,4.56.15,1.4-2,4-3.46,4.39-3,.71-6.28.24-9.45.24a2.21,2.21,0,0,1-.75-.25c-2.82-1.17-3.39-3.58-3.2-6.23.25-3.53-1.36-7.69,2.9-10a4.52,4.52,0,0,1,6.09,1.95,4.66,4.66,0,0,1,.41,1.19A31.93,31.93,0,0,1,209.94,235.64Z" transform="translate(0)"/></svg>