<svg id="Layer_1" data-name="Layer 1" xmlns="http://www.w3.org/2000/svg" viewBox="0 0 409.61 348.76"><defs><style>.cls-1{fill:#fff;}</style></defs><title>tarix-oq</title><path class="cls-1" d="M0,123.2c2.17-6.09,3.52-12.63,6.65-18.18,10.5-18.6,26.73-29,48.2-29q150-.37,299.9-.1c26,0,49.1,19.27,54,44.78a21.08,21.08,0,0,0,.86,2.54V136c-1.63,5.17-2.73,10.58-5,15.47-9.58,21-32.3,32.16-53.74,26.88-20.24-5-34.1-23.21-32.42-43.64,2.11-25.73,28.65-41.37,50.1-30.11C386.46,114,390,138,374.94,149.93c-8.67,6.89-21.06,6.27-27.86-1.49-4.32-4.93-5.46-10.59-2.95-16.72a11.76,11.76,0,0,1,14.39-7c5.21,1.64,7.4,6.7,5.78,13.39a8.77,8.77,0,0,0,4.91-9.49c-1.41-9.54-12.15-15.07-22-11.32-13.17,5-17.93,21.87-9.67,34.18,11.8,17.56,37.73,17,50.15-.95,14.65-21.16,3.4-46.56-17.31-56a43.22,43.22,0,0,0-18.25-3.6Q204,91,55.79,91A40.82,40.82,0,0,0,15.57,124.8c-4.05,23.38,18.3,44.65,40.44,38.5,15.87-4.41,24.56-21.71,17.78-35.42-4.45-9-14.23-13.83-22.78-11-5.57,1.81-9.45,5.43-10.52,11.43-.77,4.33.82,7.71,4.49,10.27.19-.43.4-.67.36-.84-1.73-6.69.84-11.9,6.52-13.18A12.2,12.2,0,0,1,66.32,134c.05.27.1.53.14.8C68.57,147.49,56,157.7,42.8,154,25,149,19.18,126.21,32.05,111.85c14-15.63,38.4-14.22,51.22,2.75,15.46,20.46,8,49-16.35,60.73C39.6,188.57,6.45,170.46.77,138.65a25.87,25.87,0,0,0-.77-2.6Z" transform="translate(0 -0.01)"/><path class="cls-1" d="M106.31,234.8V132c0-8.42,2.19-10.61,10.68-10.61h175.6c8.48,0,10.72,2.22,10.72,10.59,0,33.47-.08,66.93.08,100.4,0,5.22-1.82,8.47-6.51,10.68-8.79,4.15-17.41,8.65-26.12,13-7.65,3.78-12.91.57-12.93-8-.06-23.33,0-46.67,0-70,0-2.47.62-5.34-2.56-6.46-3.78-1.34-7.79-1.73-11,.88-1.2,1-1.49,3.57-1.5,5.43-.09,27.87-.18,55.74,0,83.6,0,5.69-1.72,9.39-6.58,12.49-13.15,8.38-26,17.21-39,25.87-3.35,2.24-6.61,4.83-11,2.53s-4.14-6.69-4.14-10.84V178.36c0-2.59.71-5.65-2.64-6.84-3.79-1.33-7.75-1.55-11.07,1-1.06.8-1.37,3.06-1.41,4.67q-.77,36.39-1.35,72.78c-.34,20.13-.7,40.26-.93,60.39a10.66,10.66,0,0,1-5.17,9.66q-20.07,13.14-39.94,26.56c-3,2-5.92,3.1-9.31,1.24s-4-5-4-8.53Q106.34,287,106.31,234.8Zm15.37,92c9.21-6.13,17.87-11.82,26.38-17.71.92-.63,1.4-2.46,1.43-3.74.37-17.73.61-35.46.92-53.19q.68-38.78,1.38-77.57c.1-5.49,1.85-10.31,6.28-13.66,8.8-6.65,18.49-7.11,28.35-2.9,8.86,3.78,11,11.36,10.9,20.34-.18,32.53-.07,65.06-.07,97.59v5.25c1.6-.93,2.5-1.41,3.35-2,7.66-5.08,15.22-10.32,23-15.2,3-1.85,4-3.87,4-7.38-.17-26.53-.11-53.06-.08-79.59,0-11.46,5-18,15.49-20.7,17.53-4.5,30,4.94,30,22.78v54c0,1.39.11,2.77.2,4.69,4.18-2.09,7.75-4.13,11.53-5.67,2.84-1.16,3.51-2.88,3.5-5.79-.11-28.52-.07-57-.08-85.58,0-1.29-.12-2.59-.19-4H121.68Z" transform="translate(0 -0.01)"/><path class="cls-1" d="M204.8,0H383.2c8.9,0,11.26,2.26,11.18,11.07-.15,17.4,1.9,12.74-10.46,25.27-6.74,6.83-13.62,13.53-20.32,20.4a12.6,12.6,0,0,1-9.59,4q-149.19-.06-298.37,0a12.65,12.65,0,0,1-9.59-4Q32.7,43.21,19.2,29.88a12,12,0,0,1-4-9.6c.17-3.86,0-7.73.06-11.59C15.41,3,18.33.21,24,0H204.8ZM380.32,15.42h-351c1.42,2.66,2.09,5,3.55,6.47q10.4,10.8,21.21,21.19a8.73,8.73,0,0,0,5.44,2.36q145.33.18,290.67,0a8.74,8.74,0,0,0,5.44-2.37q10.81-10.37,21.2-21.19C378.25,20.36,378.91,18.07,380.32,15.42Z" transform="translate(0 -0.01)"/></svg>